<?xml version="1.0" encoding="UTF-8" standalone="no"?>
<!-- Created with Inkscape (http://www.inkscape.org/) -->

<svg
   xmlns:dc="http://purl.org/dc/elements/1.1/"
   xmlns:cc="http://creativecommons.org/ns#"
   xmlns:rdf="http://www.w3.org/1999/02/22-rdf-syntax-ns#"
   xmlns:svg="http://www.w3.org/2000/svg"
   xmlns="http://www.w3.org/2000/svg"
   xmlns:sodipodi="http://sodipodi.sourceforge.net/DTD/sodipodi-0.dtd"
   xmlns:inkscape="http://www.inkscape.org/namespaces/inkscape"
   width="210mm"
   height="297mm"
   viewBox="0 0 210 297"
   version="1.1"
   id="svg15821"
   inkscape:version="0.92.1 r"
   sodipodi:docname="logo.svg">
  <defs
     id="defs15815" />
  <sodipodi:namedview
     id="base"
     pagecolor="#ffffff"
     bordercolor="#666666"
     borderopacity="1.0"
     inkscape:pageopacity="0.0"
     inkscape:pageshadow="2"
     inkscape:zoom="0.98994949"
     inkscape:cx="326.5845"
     inkscape:cy="674.69625"
     inkscape:document-units="mm"
     inkscape:current-layer="layer1"
     showgrid="false"
     inkscape:window-width="1916"
     inkscape:window-height="1030"
     inkscape:window-x="0"
     inkscape:window-y="26"
     inkscape:window-maximized="1" />
  <metadata
     id="metadata15818">
    <rdf:RDF>
      <cc:Work
         rdf:about="">
        <dc:format>image/svg+xml</dc:format>
        <dc:type
           rdf:resource="http://purl.org/dc/dcmitype/StillImage" />
        <dc:title></dc:title>
      </cc:Work>
    </rdf:RDF>
  </metadata>
  <g
     inkscape:label="Layer 1"
     inkscape:groupmode="layer"
     id="layer1">
    <g
       transform="matrix(0.35277777,0,0,-0.35277777,-15.318854,316.58865)"
       id="g15716"
       inkscape:export-xdpi="191.94933"
       inkscape:export-ydpi="191.94933">
      <g
         id="g7265"
         transform="translate(441.9558,511.1926)">
        <path
           d="m 0,0 c -1.805,0 -3.502,0.703 -4.778,1.979 l -77.573,77.57 0.072,0.085 c -2.634,2.635 -2.633,6.922 10e-4,9.556 l 77.491,77.492 0.02,-0.017 c 1.277,1.276 2.974,1.979 4.778,1.979 1.805,0 3.502,-0.704 4.779,-1.98 l 0.007,0.007 77.57,-77.57 -0.006,-0.007 c 2.575,-2.576 2.65,-6.689 0.172,-9.364 L 4.778,1.979 C 3.501,0.703 1.805,0 0,0"
           style="fill:#ffffff;fill-opacity:1;fill-rule:nonzero;stroke:none"
           id="path7267"
           inkscape:connector-curvature="0" />
      </g>
      <g
         id="g7269"
         transform="translate(441.9669,680.8361)">
        <path
           d="m 0,0 c -1.985,0 -3.97,-0.757 -5.485,-2.271 l 0.096,0.134 -77.616,-77.617 0.009,0.007 c -3.029,-3.029 -3.029,-7.94 -0.001,-10.97 l -0.549,0.392 78.06,-78.06 -0.01,0.014 c 1.514,-1.515 3.5,-2.272 5.485,-2.272 1.985,0 3.97,0.757 5.485,2.271 l -0.004,-0.005 77.785,77.785 c 2.82,3.042 2.76,7.791 -0.198,10.75 L 83.104,-79.876 5.441,-2.213 5.486,-2.272 C 3.971,-0.758 1.985,0 0,0 m 0,-2 c 1.538,0 2.984,-0.599 4.071,-1.686 l 0.008,0.006 77.569,-77.569 -0.006,-0.007 c 2.186,-2.186 2.257,-5.672 0.17,-7.951 l -77.751,-77.751 -0.001,0.001 c -1.087,-1.087 -2.533,-1.686 -4.071,-1.686 -1.538,0 -2.984,0.599 -4.071,1.686 l -0.002,-0.001 -77.57,77.57 0.072,0.085 c -2.245,2.245 -2.244,5.898 0,8.142 l -0.001,0.001 77.492,77.492 0.02,-0.018 C -2.983,-2.599 -1.538,-2 0,-2"
           style="fill:#231f20;fill-opacity:1;fill-rule:nonzero;stroke:none"
           id="path7271"
           inkscape:connector-curvature="0" />
      </g>
      <g
         id="g7273"
         transform="translate(418.6819,603.2849)">
        <path
           d="m 0,0 h 7.758 c 4.284,0 7.757,-3.473 7.758,-7.757 v -0.002 0.001 c 0,-4.284 3.473,-7.757 7.757,-7.757 l 7.758,-10e-4 h -7.758 c 4.284,0 7.757,-3.472 7.758,-7.756 v -0.002 -7.757 -7.756 -0.003 -7.756 -7.757 -0.002 c -10e-4,-4.284 -3.474,-7.757 -7.758,-7.757 -4.284,0 -7.757,-3.473 -7.757,-7.758 v 10e-4 -0.002 -7.756 -7.757 -0.002 0 c 0,-4.284 3.473,-7.757 7.757,-7.757 2.135,0 4.067,0.863 5.469,2.257 l 0.031,0.031 15.484,15.484 0.033,0.032 15.482,15.483 0.034,0.034 15.481,15.481 0.035,0.034 15.479,15.48 0.038,0.038 15.477,15.476 0.039,0.04 c 1.392,1.402 2.254,3.332 2.254,5.464 0,0 0,0.001 0,0.001 0,0 0,0.001 0,0.001 0,2.131 -0.861,4.06 -2.252,5.462 l -0.043,0.044 -15.473,15.473 -0.042,0.041 -15.475,15.475 -0.04,0.04 -15.476,15.477 -0.038,0.038 -15.479,15.478 -0.036,0.036 -15.48,15.481 -0.034,0.034 c -1.403,1.394 -3.334,2.255 -5.468,2.255 -2.141,0 -4.08,-0.867 -5.483,-2.27 L 17.786,75.303 2.275,59.792 2.27,59.787 -13.24,44.278 -13.247,44.27 -28.754,28.763 -28.763,28.754 c -1.401,-1.403 -2.268,-3.341 -2.268,-5.481 0,-4.284 3.473,-7.758 7.758,-7.758 v 0 h 0.001 c 4.283,0 7.756,-3.472 7.756,-7.756 V 7.757 7.758 C -15.516,3.473 -12.042,0 -7.758,0 H 0"
           style="fill:#231f20;fill-opacity:1;fill-rule:nonzero;stroke:none"
           id="path7275"
           inkscape:connector-curvature="0" />
      </g>
      <g
         id="g7277"
         transform="translate(472.9864,636.2426)">
        <path
           d="m 0,0 c 3.213,0 5.818,2.605 5.818,5.818 0,3.214 -2.605,5.819 -5.818,5.819 -3.213,0 -5.818,-2.605 -5.818,-5.819 C -5.818,2.605 -3.213,0 0,0"
           style="fill:#231f20;fill-opacity:1;fill-rule:nonzero;stroke:none"
           id="path7279"
           inkscape:connector-curvature="0" />
      </g>
      <g
         id="g7281"
         transform="translate(488.502,620.7272)">
        <path
           d="m 0,0 c 3.213,0 5.818,2.605 5.818,5.818 0,3.214 -2.605,5.819 -5.818,5.819 -3.213,0 -5.818,-2.605 -5.818,-5.819 C -5.818,2.605 -3.213,0 0,0"
           style="fill:#231f20;fill-opacity:1;fill-rule:nonzero;stroke:none"
           id="path7283"
           inkscape:connector-curvature="0" />
      </g>
      <g
         id="g7285"
         transform="translate(457.4708,605.2117)">
        <path
           d="m 0,0 c 3.213,0 5.818,2.605 5.818,5.818 0,3.214 -2.605,5.819 -5.818,5.819 -3.213,0 -5.818,-2.605 -5.818,-5.819 C -5.818,2.605 -3.213,0 0,0"
           style="fill:#231f20;fill-opacity:1;fill-rule:nonzero;stroke:none"
           id="path7287"
           inkscape:connector-curvature="0" />
      </g>
      <g
         id="g7289"
         transform="translate(488.502,616.8483)">
        <path
           d="m 0,0 c -3.213,0 -5.818,-2.605 -5.818,-5.818 0,-3.214 2.605,-5.819 5.818,-5.819 3.213,0 5.818,2.605 5.818,5.819 C 5.818,-2.605 3.213,0 0,0"
           style="fill:#231f20;fill-opacity:1;fill-rule:nonzero;stroke:none"
           id="path7291"
           inkscape:connector-curvature="0" />
      </g>
      <g
         id="g7293"
         transform="translate(441.9553,601.3328)">
        <path
           d="m 0,0 c -3.213,0 -5.818,-2.605 -5.818,-5.818 0,-3.214 2.605,-5.819 5.818,-5.819 3.213,0 5.818,2.605 5.818,5.819 C 5.818,-2.605 3.213,0 0,0"
           style="fill:#231f20;fill-opacity:1;fill-rule:nonzero;stroke:none"
           id="path7295"
           inkscape:connector-curvature="0" />
      </g>
      <g
         id="g7297"
         transform="translate(472.9864,570.3018)">
        <path
           d="m 0,0 c -3.213,0 -5.818,-2.605 -5.818,-5.818 0,-3.214 2.605,-5.819 5.818,-5.819 3.213,0 5.818,2.605 5.818,5.819 C 5.818,-2.605 3.213,0 0,0"
           style="fill:#231f20;fill-opacity:1;fill-rule:nonzero;stroke:none"
           id="path7299"
           inkscape:connector-curvature="0" />
      </g>
      <g
         id="g7301"
         transform="translate(426.4397,636.2426)">
        <path
           d="m 0,0 c 3.213,0 5.818,2.605 5.818,5.818 0,3.214 -2.605,5.819 -5.818,5.819 -3.213,0 -5.818,-2.605 -5.818,-5.819 C -5.818,2.605 -3.213,0 0,0"
           style="fill:#231f20;fill-opacity:1;fill-rule:nonzero;stroke:none"
           id="path7303"
           inkscape:connector-curvature="0" />
      </g>
      <g
         id="g7305"
         transform="translate(472.9864,554.7863)">
        <path
           d="m 0,0 c -3.213,0 -5.818,-2.605 -5.818,-5.818 0,-3.214 2.605,-5.819 5.818,-5.819 3.213,0 5.818,2.605 5.818,5.819 C 5.818,-2.605 3.213,0 0,0"
           style="fill:#231f20;fill-opacity:1;fill-rule:nonzero;stroke:none"
           id="path7307"
           inkscape:connector-curvature="0" />
      </g>
      <g
         id="g7309"
         transform="translate(457.4708,651.7581)">
        <path
           d="m 0,0 c 3.213,0 5.818,2.605 5.818,5.818 0,3.214 -2.605,5.819 -5.818,5.819 -3.213,0 -5.818,-2.605 -5.818,-5.819 C -5.818,2.605 -3.213,0 0,0"
           style="fill:#231f20;fill-opacity:1;fill-rule:nonzero;stroke:none"
           id="path7311"
           inkscape:connector-curvature="0" />
      </g>
      <g
         id="g7313"
         transform="translate(441.9553,636.2426)">
        <path
           d="m 0,0 c 3.213,0 5.818,2.605 5.818,5.818 0,3.214 -2.605,5.819 -5.818,5.819 -3.213,0 -5.818,-2.605 -5.818,-5.819 C -5.818,2.605 -3.213,0 0,0"
           style="fill:#231f20;fill-opacity:1;fill-rule:nonzero;stroke:none"
           id="path7315"
           inkscape:connector-curvature="0" />
      </g>
      <g
         id="g7317"
         transform="translate(426.4397,620.7272)">
        <path
           d="m 0,0 c 3.213,0 5.818,2.605 5.818,5.818 0,3.214 -2.605,5.819 -5.818,5.819 -3.213,0 -5.818,-2.605 -5.818,-5.819 C -5.818,2.605 -3.213,0 0,0"
           style="fill:#231f20;fill-opacity:1;fill-rule:nonzero;stroke:none"
           id="path7319"
           inkscape:connector-curvature="0" />
      </g>
      <g
         id="g7321"
         transform="translate(457.4708,585.8173)">
        <path
           d="m 0,0 c -3.213,0 -5.818,-2.605 -5.818,-5.818 0,-3.214 2.605,-5.819 5.818,-5.819 3.213,0 5.818,2.605 5.818,5.819 C 5.818,-2.605 3.213,0 0,0"
           style="fill:#231f20;fill-opacity:1;fill-rule:nonzero;stroke:none"
           id="path7323"
           inkscape:connector-curvature="0" />
      </g>
      <g
         id="g7325"
         transform="translate(472.9864,585.8173)">
        <path
           d="m 0,0 c -3.213,0 -5.818,-2.605 -5.818,-5.818 0,-3.214 2.605,-5.819 5.818,-5.819 3.213,0 5.818,2.605 5.818,5.819 C 5.818,-2.605 3.213,0 0,0"
           style="fill:#231f20;fill-opacity:1;fill-rule:nonzero;stroke:none"
           id="path7327"
           inkscape:connector-curvature="0" />
      </g>
      <g
         id="g7329"
         transform="translate(488.502,570.3018)">
        <path
           d="m 0,0 c -3.213,0 -5.818,-2.605 -5.818,-5.818 0,-3.214 2.605,-5.819 5.818,-5.819 3.213,0 5.818,2.605 5.818,5.819 C 5.818,-2.605 3.213,0 0,0"
           style="fill:#231f20;fill-opacity:1;fill-rule:nonzero;stroke:none"
           id="path7331"
           inkscape:connector-curvature="0" />
      </g>
      <g
         id="g7333"
         transform="translate(441.9553,539.2709)">
        <path
           d="m 0,0 c -3.213,0 -5.818,-2.605 -5.818,-5.818 0,-3.214 2.605,-5.819 5.818,-5.819 3.213,0 5.818,2.605 5.818,5.819 C 5.818,-2.605 3.213,0 0,0"
           style="fill:#231f20;fill-opacity:1;fill-rule:nonzero;stroke:none"
           id="path7335"
           inkscape:connector-curvature="0" />
      </g>
      <g
         id="g7337"
         transform="translate(410.9241,636.2426)">
        <path
           d="m 0,0 c 3.213,0 5.818,2.605 5.818,5.818 0,3.214 -2.605,5.819 -5.818,5.819 -3.213,0 -5.818,-2.605 -5.818,-5.819 C -5.818,2.605 -3.213,0 0,0"
           style="fill:#231f20;fill-opacity:1;fill-rule:nonzero;stroke:none"
           id="path7339"
           inkscape:connector-curvature="0" />
      </g>
      <g
         id="g7341"
         transform="translate(441.9553,620.7272)">
        <path
           d="m 0,0 c 3.213,0 5.818,2.605 5.818,5.818 0,3.214 -2.605,5.819 -5.818,5.819 -3.213,0 -5.818,-2.605 -5.818,-5.819 C -5.818,2.605 -3.213,0 0,0"
           style="fill:#231f20;fill-opacity:1;fill-rule:nonzero;stroke:none"
           id="path7343"
           inkscape:connector-curvature="0" />
      </g>
      <g
         id="g7345"
         transform="translate(426.4397,605.2117)">
        <path
           d="m 0,0 c 3.213,0 5.818,2.605 5.818,5.818 0,3.214 -2.605,5.819 -5.818,5.819 -3.213,0 -5.818,-2.605 -5.818,-5.819 C -5.818,2.605 -3.213,0 0,0"
           style="fill:#231f20;fill-opacity:1;fill-rule:nonzero;stroke:none"
           id="path7347"
           inkscape:connector-curvature="0" />
      </g>
      <g
         id="g7517"
         transform="translate(395.4086,620.7272)">
        <path
           d="m 0,0 c 3.213,0 5.818,2.605 5.818,5.818 0,3.214 -2.605,5.819 -5.818,5.819 -3.213,0 -5.818,-2.605 -5.818,-5.819 C -5.818,2.605 -3.213,0 0,0"
           style="fill:#4dbd98;fill-opacity:1;fill-rule:nonzero;stroke:none"
           id="path7519"
           inkscape:connector-curvature="0" />
      </g>
      <g
         id="g7521"
         transform="translate(457.4708,620.7272)">
        <path
           d="m 0,0 c 3.213,0 5.818,2.605 5.818,5.818 0,3.214 -2.605,5.819 -5.818,5.819 -3.213,0 -5.818,-2.605 -5.818,-5.819 C -5.818,2.605 -3.213,0 0,0"
           style="fill:#4dbd98;fill-opacity:1;fill-rule:nonzero;stroke:none"
           id="path7523"
           inkscape:connector-curvature="0" />
      </g>
      <g
         id="g7549"
         transform="translate(426.4397,651.7581)">
        <path
           d="m 0,0 c 3.213,0 5.818,2.605 5.818,5.818 0,3.214 -2.605,5.819 -5.818,5.819 -3.213,0 -5.818,-2.605 -5.818,-5.819 C -5.818,2.605 -3.213,0 0,0"
           style="fill:#7394a1;fill-opacity:1;fill-rule:nonzero;stroke:none"
           id="path7551"
           inkscape:connector-curvature="0" />
      </g>
      <g
         id="g7553"
         transform="translate(441.9553,651.7581)">
        <path
           d="m 0,0 c 3.213,0 5.818,2.605 5.818,5.818 0,3.214 -2.605,5.819 -5.818,5.819 -3.213,0 -5.818,-2.605 -5.818,-5.819 C -5.818,2.605 -3.213,0 0,0"
           style="fill:#7394a1;fill-opacity:1;fill-rule:nonzero;stroke:none"
           id="path7555"
           inkscape:connector-curvature="0" />
      </g>
      <g
         id="g7557"
         transform="translate(410.9241,605.2117)">
        <path
           d="m 0,0 c 3.213,0 5.818,2.605 5.818,5.818 0,3.214 -2.605,5.819 -5.818,5.819 -3.213,0 -5.818,-2.605 -5.818,-5.819 C -5.818,2.605 -3.213,0 0,0"
           style="fill:#7394a1;fill-opacity:1;fill-rule:nonzero;stroke:none"
           id="path7559"
           inkscape:connector-curvature="0" />
      </g>
      <g
         id="g7561"
         transform="translate(441.9553,605.2117)">
        <path
           d="m 0,0 c 3.213,0 5.818,2.605 5.818,5.818 0,3.214 -2.605,5.819 -5.818,5.819 -3.213,0 -5.818,-2.605 -5.818,-5.819 C -5.818,2.605 -3.213,0 0,0"
           style="fill:#7394a1;fill-opacity:1;fill-rule:nonzero;stroke:none"
           id="path7563"
           inkscape:connector-curvature="0" />
      </g>
      <g
         id="g7565"
         transform="translate(504.0175,616.8483)">
        <path
           d="m 0,0 c -3.213,0 -5.818,-2.605 -5.818,-5.818 0,-3.214 2.605,-5.819 5.818,-5.819 3.213,0 5.818,2.605 5.818,5.819 C 5.818,-2.605 3.213,0 0,0"
           style="fill:#7394a1;fill-opacity:1;fill-rule:nonzero;stroke:none"
           id="path7567"
           inkscape:connector-curvature="0" />
      </g>
      <g
         id="g7569"
         transform="translate(457.4708,601.3328)">
        <path
           d="m 0,0 c -3.213,0 -5.818,-2.605 -5.818,-5.818 0,-3.214 2.605,-5.819 5.818,-5.819 3.213,0 5.818,2.605 5.818,5.819 C 5.818,-2.605 3.213,0 0,0"
           style="fill:#7394a1;fill-opacity:1;fill-rule:nonzero;stroke:none"
           id="path7571"
           inkscape:connector-curvature="0" />
      </g>
      <g
         id="g7573"
         transform="translate(472.9864,601.3328)">
        <path
           d="m 0,0 c -3.213,0 -5.818,-2.605 -5.818,-5.818 0,-3.214 2.605,-5.819 5.818,-5.819 3.213,0 5.818,2.605 5.818,5.819 C 5.818,-2.605 3.213,0 0,0"
           style="fill:#7394a1;fill-opacity:1;fill-rule:nonzero;stroke:none"
           id="path7575"
           inkscape:connector-curvature="0" />
      </g>
      <g
         id="g7577"
         transform="translate(504.0175,585.8173)">
        <path
           d="m 0,0 c -3.213,0 -5.818,-2.605 -5.818,-5.818 0,-3.214 2.605,-5.819 5.818,-5.819 3.213,0 5.818,2.605 5.818,5.819 C 5.818,-2.605 3.213,0 0,0"
           style="fill:#7394a1;fill-opacity:1;fill-rule:nonzero;stroke:none"
           id="path7579"
           inkscape:connector-curvature="0" />
      </g>
      <g
         id="g7581"
         transform="translate(457.4708,570.3018)">
        <path
           d="m 0,0 c -3.213,0 -5.818,-2.605 -5.818,-5.818 0,-3.214 2.605,-5.819 5.818,-5.819 3.213,0 5.818,2.605 5.818,5.819 C 5.818,-2.605 3.213,0 0,0"
           style="fill:#7394a1;fill-opacity:1;fill-rule:nonzero;stroke:none"
           id="path7583"
           inkscape:connector-curvature="0" />
      </g>
      <g
         id="g7585"
         transform="translate(457.4708,554.7863)">
        <path
           d="m 0,0 c -3.213,0 -5.818,-2.605 -5.818,-5.818 0,-3.214 2.605,-5.819 5.818,-5.819 3.213,0 5.818,2.605 5.818,5.819 C 5.818,-2.605 3.213,0 0,0"
           style="fill:#7394a1;fill-opacity:1;fill-rule:nonzero;stroke:none"
           id="path7587"
           inkscape:connector-curvature="0" />
      </g>
      <g
         id="g7781"
         transform="translate(441.9553,667.2736)">
        <path
           d="m 0,0 c 3.213,0 5.818,2.605 5.818,5.818 0,3.214 -2.605,5.819 -5.818,5.819 -3.213,0 -5.818,-2.605 -5.818,-5.819 C -5.818,2.605 -3.213,0 0,0"
           style="fill:#d8deee;fill-opacity:1;fill-rule:nonzero;stroke:none"
           id="path7783"
           inkscape:connector-curvature="0" />
      </g>
      <g
         id="g7785"
         transform="translate(457.4708,636.2426)">
        <path
           d="m 0,0 c 3.213,0 5.818,2.605 5.818,5.818 0,3.214 -2.605,5.819 -5.818,5.819 -3.213,0 -5.818,-2.605 -5.818,-5.819 C -5.818,2.605 -3.213,0 0,0"
           style="fill:#d8deee;fill-opacity:1;fill-rule:nonzero;stroke:none"
           id="path7787"
           inkscape:connector-curvature="0" />
      </g>
      <g
         id="g7789"
         transform="translate(410.9241,620.7272)">
        <path
           d="m 0,0 c 3.213,0 5.818,2.605 5.818,5.818 0,3.214 -2.605,5.819 -5.818,5.819 -3.213,0 -5.818,-2.605 -5.818,-5.819 C -5.818,2.605 -3.213,0 0,0"
           style="fill:#d8deee;fill-opacity:1;fill-rule:nonzero;stroke:none"
           id="path7791"
           inkscape:connector-curvature="0" />
      </g>
      <g
         id="g7793"
         transform="translate(472.9864,620.7272)">
        <path
           d="m 0,0 c 3.213,0 5.818,2.605 5.818,5.818 0,3.214 -2.605,5.819 -5.818,5.819 -3.213,0 -5.818,-2.605 -5.818,-5.819 C -5.818,2.605 -3.213,0 0,0"
           style="fill:#d8deee;fill-opacity:1;fill-rule:nonzero;stroke:none"
           id="path7795"
           inkscape:connector-curvature="0" />
      </g>
      <g
         id="g7797"
         transform="translate(472.9864,605.2117)">
        <path
           d="m 0,0 c 3.213,0 5.818,2.605 5.818,5.818 0,3.214 -2.605,5.819 -5.818,5.819 -3.213,0 -5.818,-2.605 -5.818,-5.819 C -5.818,2.605 -3.213,0 0,0"
           style="fill:#d8deee;fill-opacity:1;fill-rule:nonzero;stroke:none"
           id="path7799"
           inkscape:connector-curvature="0" />
      </g>
      <g
         id="g7801"
         transform="translate(488.502,601.3328)">
        <path
           d="m 0,0 c -3.213,0 -5.818,-2.605 -5.818,-5.818 0,-3.214 2.605,-5.819 5.818,-5.819 3.213,0 5.818,2.605 5.818,5.819 C 5.818,-2.605 3.213,0 0,0"
           style="fill:#d8deee;fill-opacity:1;fill-rule:nonzero;stroke:none"
           id="path7803"
           inkscape:connector-curvature="0" />
      </g>
      <g
         id="g7805"
         transform="translate(504.0175,601.3328)">
        <path
           d="m 0,0 c -3.213,0 -5.818,-2.605 -5.818,-5.818 0,-3.214 2.605,-5.819 5.818,-5.819 3.213,0 5.818,2.605 5.818,5.819 C 5.818,-2.605 3.213,0 0,0"
           style="fill:#d8deee;fill-opacity:1;fill-rule:nonzero;stroke:none"
           id="path7807"
           inkscape:connector-curvature="0" />
      </g>
      <g
         id="g7809"
         transform="translate(519.5331,601.3328)">
        <path
           d="m 0,0 c -3.213,0 -5.818,-2.605 -5.818,-5.818 0,-3.214 2.605,-5.819 5.818,-5.819 3.213,0 5.818,2.605 5.818,5.819 C 5.818,-2.605 3.213,0 0,0"
           style="fill:#d8deee;fill-opacity:1;fill-rule:nonzero;stroke:none"
           id="path7811"
           inkscape:connector-curvature="0" />
      </g>
      <g
         id="g7813"
         transform="translate(488.502,585.8173)">
        <path
           d="m 0,0 c -3.213,0 -5.818,-2.605 -5.818,-5.818 0,-3.214 2.605,-5.819 5.818,-5.819 3.213,0 5.818,2.605 5.818,5.819 C 5.818,-2.605 3.213,0 0,0"
           style="fill:#d8deee;fill-opacity:1;fill-rule:nonzero;stroke:none"
           id="path7815"
           inkscape:connector-curvature="0" />
      </g>
      <g
         id="g7817"
         transform="translate(457.4708,539.2709)">
        <path
           d="m 0,0 c -3.213,0 -5.818,-2.605 -5.818,-5.818 0,-3.214 2.605,-5.819 5.818,-5.819 3.213,0 5.818,2.605 5.818,5.819 C 5.818,-2.605 3.213,0 0,0"
           style="fill:#d8deee;fill-opacity:1;fill-rule:nonzero;stroke:none"
           id="path7819"
           inkscape:connector-curvature="0" />
      </g>
      <g
         id="g7821"
         transform="translate(441.9553,523.7554)">
        <path
           d="m 0,0 c -3.213,0 -5.818,-2.605 -5.818,-5.818 0,-3.214 2.605,-5.819 5.818,-5.819 3.213,0 5.818,2.605 5.818,5.819 C 5.818,-2.605 3.213,0 0,0"
           style="fill:#d8deee;fill-opacity:1;fill-rule:nonzero;stroke:none"
           id="path7823"
           inkscape:connector-curvature="0" />
      </g>
    </g>
  </g>
</svg>
